# xmcd CD database file
#
# Track frame offsets:
#	150
#	30023
#	55288
#	82795
#	108502
#	132080
#	152945
#	177483
#	205520
#	233328
#	266138
#
# Disc length: 3920 seconds
#
# Revision: 1
# Processed by: cddbd v1.5.2PL0 Copyright (c) Steve Scherf et al.
# Submitted via: CDex 1.70beta2
#
DISCID=800f4e0b
DTITLE=quasimode - mode of blue
DYEAR=2009
DGENRE=Jazz
TTITLE0=mode of blue
TTITLE1=On Children
TTITLE2=Afrodisia
TTITLE3=Little B's Poem feat. Valerie Etienne
TTITLE4=The Loner
TTITLE5=No Room For Squares
TTITLE6=Congalegre
TTITLE7=Ghana
TTITLE8=Sayonara Blues
TTITLE9=African Village
TTITLE10=Night Dreamer
EXTD=YEAR: 2009
EXTT0=
EXTT1=
EXTT2=
EXTT3=
EXTT4=
EXTT5=
EXTT6=
EXTT7=
EXTT8=
EXTT9=
EXTT10=
PLAYORDER=
